<svg xmlns="http://www.w3.org/2000/svg" version="1.1" xmlns:xlink="http://www.w3.org/1999/xlink" xmlns:svgjs="http://svgjs.com/svgjs" width="1440" height="560" preserveAspectRatio="none" viewBox="0 0 1440 560"><g mask="url(&quot;#SvgjsMask1004&quot;)" fill="none"><rect width="1440" height="560" x="0" y="0" fill="rgba(0, 128, 128, 1)"></rect><circle r="7.46" cx="1412.58" cy="564.26" filter="url(#SvgjsFilter1005)" fill="rgba(138, 42, 45, 1)"></circle><circle r="7.295" cx="104.735" cy="77.535" filter="url(#SvgjsFilter1005)" fill="rgba(138, 42, 45, 1)"></circle><circle r="5.9" cx="422.58" cy="407.27" filter="url(#SvgjsFilter1005)" fill="rgba(138, 42, 45, 1)"></circle><circle r="5.505" cx="335.975" cy="56.355000000000004" filter="url(#SvgjsFilter1005)" fill="rgba(138, 42, 45, 1)"></circle><circle r="5.12" cx="1340.5" cy="278.91" filter="url(#SvgjsFilter1005)" fill="rgba(138, 42, 45, 1)"></circle><circle r="5.86" cx="877.92" cy="362.78000000000003" filter="url(#SvgjsFilter1005)" fill="rgba(138, 42, 45, 1)"></circle><circle r="8.73" cx="1130.89" cy="462.53000000000003" filter="url(#SvgjsFilter1005)" fill="rgba(138, 42, 45, 1)"></circle><circle r="8.525" cx="36.575" cy="436.005" filter="url(#SvgjsFilter1005)" fill="rgba(138, 42, 45, 1)"></circle><circle r="7.795" cx="422.535" cy="93.815" filter="url(#SvgjsFilter1005)" fill="rgba(138, 42, 45, 1)"></circle><circle r="6.9" cx="99.08000000000001" cy="271.37" filter="url(#SvgjsFilter1005)" fill="rgba(138, 42, 45, 1)"></circle><circle r="5.88" cx="756.85" cy="493.59" filter="url(#SvgjsFilter1005)" fill="rgba(138, 42, 45, 1)"></circle><circle r="7.235" cx="684.235" cy="356.545" filter="url(#SvgjsFilter1005)" fill="rgba(138, 42, 45, 1)"></circle><circle r="9.05" cx="518.68" cy="10.31" filter="url(#SvgjsFilter1005)" fill="rgba(138, 42, 45, 1)"></circle><circle r="9.02" cx="150.44" cy="437.12" filter="url(#SvgjsFilter1005)" fill="rgba(138, 42, 45, 1)"></circle><circle r="7.88" cx="1400.18" cy="500.56" filter="url(#SvgjsFilter1005)" fill="rgba(138, 42, 45, 1)"></circle><circle r="4.795" cx="284.005" cy="445.295" filter="url(#SvgjsFilter1005)" fill="rgba(138, 42, 45, 1)"></circle><circle r="6.385" cx="470.875" cy="84.31500000000001" filter="url(#SvgjsFilter1005)" fill="rgba(138, 42, 45, 1)"></circle><circle r="6.31" cx="508.86" cy="127.67" filter="url(#SvgjsFilter1005)" fill="rgba(138, 42, 45, 1)"></circle><circle r="7.345" cx="583.0550000000001" cy="361.235" filter="url(#SvgjsFilter1005)" fill="rgba(138, 42, 45, 1)"></circle><circle r="5.36" cx="576.42" cy="352.72" filter="url(#SvgjsFilter1005)" fill="rgba(138, 42, 45, 1)"></circle><path d="M917.9 100.4L910.4 121.6 901.2 111.7C900.3 110.6 898.3 110.3 896.6 111.3 895.6 112.9 895.3 114.9 896.8 115.9L908 128.6 902.9 145.3 879.8 118.7C878.3 117.7 876.3 117.5 875.1 118.4 873.5 120 873.3 122 874.8 123L900.4 152.4 891.9 177.6 874.3 152.5 868.1 182.5 850.3 162.7 862.3 125.6C862.9 125.5 862.7 124.8 862.6 124.2 862.4 122.9 861.5 121.8 860.1 121.4 858.7 121.1 857 122.1 856 123.6L845.2 157.2 834 143.8 839.2 127.7C839.7 126.9 839.5 126.3 839.4 125.7 839.3 125.1 838.4 123.9 837 123.6 835.6 123.2 833.9 124.2 833.5 125.6L828.9 138.3 813.8 121.8C812.8 120.1 810.9 120.4 809.1 121.5 808 122.3 807.8 124.3 809.4 126L823.9 142.6 810.8 145.3C808.9 145.7 808 147.8 808.3 149.1 808.7 151 810.2 152 812.1 151.6L829 148.1 840.2 161.5 806.4 168.4C804.5 168.8 803.5 170.3 803.9 172.2 804.1 173.4 805.8 175.1 807.6 174.7L845.3 167 863.1 186.8 833 189.7 855.4 210 829.1 215.4 803.6 186.6C801.9 185 800 185.4 798.9 186.3 797.8 187.2 797.6 189.2 798.6 190.9L822.2 216.8 805.2 220.3 793.5 207.6C792.5 205.9 790.5 205.6 788.9 207.3 787.7 208.2 787.5 210.2 789.1 211.8L797.7 221.8 775.8 226.3C773.9 226.7 772.9 228.2 773.3 230.1S775.2 233 777.1 232.6L799 228.1 795.1 240.6C794.2 242.8 795.2 244.5 796.6 244.9 798.7 245.8 800.5 244.8 800.7 242.7L806.5 226.5 823.5 223.1 812 256.1C811.7 258.1 812.7 259.9 814.1 260.3 816.2 261.1 818 260.1 818.2 258.1L830.4 221.6 856.7 216.2 844 243.7 872.8 234.5 864.3 259.7 826.7 267.5C824.8 267.9 823.9 270 824.2 271.2 824.6 273.1 826.1 274.1 828 273.7L862.5 266.7 856.8 283.5 839.8 287C838 287.4 837 288.9 837.4 290.8 837.6 292 839.3 293.6 841.1 293.3L854.3 290.5 847.5 311.5C846.6 313.7 847.6 315.4 849.7 315.7 851 316 852.9 315.7 853.2 313.6L860.6 292.5 869.8 302.4C870.7 303.5 872.7 303.8 873.8 302.9 874.9 302 875.3 300.6 875.2 300 875.1 299.4 874.9 298.7 874.2 298.2L863.1 285.5 868.1 268.8 891.2 295.4C892.7 296.4 894.7 296.6 895.9 295.7 897 294.9 897.4 293.5 897.1 292.2 897 291.6 897 291.6 896.2 291.1L870.6 261.7 879.1 236.5 896.7 261.6 903 231.6 920.8 251.4 908.8 288.5C908.4 289.9 908.8 291.8 910.9 292.6 912.3 293 914.1 292 915 290.5L925.8 256.9 937 270.3 931.8 286.4C930.9 287.9 931.9 289.7 934 290.5 935.4 290.9 937.1 289.9 938.1 288.4L942.1 275.8 957.2 292.3C958.2 294 960.1 293.7 961.9 292.6 962.4 291.9 962.7 290.5 962.6 289.9 962.5 289.2 962.4 288.6 961.6 288.1L947.1 271.5 960.3 268.8C962.1 268.4 963 266.3 962.7 265L962.7 265C962.4 263.1 960.8 262.1 959 262.5L942 266 930.8 252.6 964.7 245.7C966.5 245.3 967.5 243.8 967.1 241.9S965.2 239 963.4 239.4L925.7 247.1 908 227.3 938.1 224.4 915.6 204.1 941.9 198.7 967.4 227.5C969.1 229.1 971 228.7 972.1 227.8 973.2 226.9 973.5 224.9 972.4 223.2L949.5 197.2 965.8 193.8 977.5 206.5C978.5 208.2 980.5 208.4 982.2 206.8 983.3 205.9 983.5 203.9 982.5 202.2L973.3 192.3 995.2 187.8C997.1 187.4 998.1 185.9 997.7 184S995.8 181.1 993.9 181.5L972 186 976 173.5C976.5 172.7 976.3 172.1 976.2 171.4 975.9 170.2 975.2 169.7 974.4 169.2 972.3 168.3 970.5 169.3 970.3 171.3L964.5 187.6 947.6 191 959.1 158C958.9 157.3 958.8 156.7 958.7 156.1 958.4 154.8 957.7 154.3 956.9 153.8 954.8 153 953 154 952.8 156L940.7 192.5 914.3 197.9 927 170.4 898.2 179.6 906.7 154.3 944.3 146.6C946.2 146.2 947.1 144.1 946.8 142.8 946.4 141 944.9 140 943 140.4L909.2 147.3 914.2 130.6 931.2 127.1C933 126.7 934 125.2 933.7 123.3S931.8 120.5 929.9 120.8L916.7 123.5 923.5 102.6C924 101.8 923.9 101.2 923.8 100.5 923.6 99.9 922.7 98.8 921.4 98.4 920 98.1 918.1 98.4 917.9 100.4ZM915.4 180.7L904.9 203.1 923.4 219.5 898.4 222 893.5 245.9 879 226 855.6 233.4 866.1 211 847.7 194.6 872 192.2 877.5 168.2 891.4 188.2 915.4 180.7Z" fill="rgba(138, 42, 45, 1)"></path><path d="M431.7 210.5L402.4 183.7 401.6 172.7 422.2 159.5 432.2 164.4 444.2 202.4C444.4 202.8 444.4 202.8 444.7 203.2 445.2 204 446.1 204.6 447.6 204.2 448.8 203.4 449.4 202.5 449 201L438.4 167.8 453.7 175.6 458.6 190.2C458.6 190.2 458.9 190.6 458.9 190.6 459.4 191.4 460.3 192 461.8 191.6 462.8 191.5 463.5 189.9 463.1 188.4L460.4 178.8 471.6 184.7C472.5 185.2 474 184.9 474.9 183.7S474.8 180.9 473.7 179.9L462.7 174.4 472 171.2C473.5 170.9 474.2 169.3 473.8 167.8 473.3 167 472.1 166.1 470.7 166.4L456.1 171.3 440.5 163.1 473.7 152.5C475.1 152.1 475.8 150.5 475.7 149.5 474.9 148.3 473.7 147.3 472.3 147.7L434.5 160 424.2 154.7 423.1 130.9 432.8 124.6 471.7 132.6C473 132.9 474.2 132.1 474.5 130.8S474 128.3 472.7 128L438.4 121 453.4 111.3 468 114.5C469.3 114.8 470.5 114 471.2 112.4S470.7 109.9 469.4 109.6L459 107.7 469.9 100.7C471.1 99.9 471.1 98.1 470.3 96.9 469.6 95.7 468.2 95.4 467 96.2L456.1 103.2 458.3 93.3C459 91.7 458.2 90.5 456.5 90.5 455.1 90.2 453.9 91 453.6 92.3L450.5 106.9 435.6 116.5 443.3 82.4C443.5 81.1 442.5 79.5 441.2 79.2S438.6 79.7 438.4 81L429.9 120.2 420.2 126.4 398.7 115.2 398.3 104 425.1 74.7C426.1 73.5 425.7 72 424.9 70.8 423.7 69.9 422.3 70.3 421.1 71L397.8 96.9 397 79.7 407.4 68.4C408.3 67.3 408 65.8 407.2 64.6 406.3 64 404.5 64 403.6 65.2L396.8 72.4 396.1 59.8C395.9 58.7 394.8 57.7 393.4 57.5 392 57.8 391 59 391.1 60.1L391.9 72.7 384 65.8C383.1 65.3 381.3 65.3 380.8 66.2 379.6 67 379.7 68 380.5 69.3 380.5 69.3 380.7 69.7 380.7 69.7L392 80.1 392.8 97.3 367 74C365.8 73 364.4 72.7 363.5 73.9 362.6 75.1 362.7 76.2 363.2 77 363.4 77.4 363.4 77.4 363.4 77.4L393.4 104.3 393.8 115.5 373.2 128.8 363.6 123.6 350.9 85.5C350.8 84.4 349.2 83.7 348.2 83.8 346.7 84.2 346 85.8 346.4 87.3L357 120.4 341.6 112.6 336.8 98C336.4 96.6 335.2 95.6 334 96.4 332.5 96.8 331.9 98.4 332 99.4L335.4 109.2 324.2 103.3C322.9 103 321.4 103.4 320.4 104.6 320.3 105.2 320.4 106.3 320.9 107.1 321.2 107.5 321.2 107.5 321.9 107.7L333.1 113.6 323.3 117C321.9 117.4 321.6 118.7 321.7 119.8 321.9 120.2 321.9 120.2 322.2 120.6 322.7 121.4 323.7 121.9 324.7 121.8L339.3 117 354.6 124.8 321.5 135.4C320.2 136.1 319.3 137.3 320.1 138.5 319.9 139.2 319.9 139.2 320.2 139.6 320.7 140.4 322 140.7 323.1 140.6L361.2 128 370.9 133.2 372.3 157.4 363 163.4 323.8 155C322.5 154.7 320.9 155.7 320.6 157S321.4 160 322.7 160.3L356.9 167.3 342.4 176.7 327.4 173.8C326.1 173.5 324.9 174.3 324.6 175.6 324.3 176.9 325.1 178.1 326.4 178.4L336.4 180.6 325.5 187.6C324.7 188.1 324 189.7 324.8 190.9 325.6 192.1 327.5 192.6 328.3 192L339.2 185 337.1 195C337 195.6 336.8 196.3 337.1 196.7 337.6 197.5 338.3 197.6 338.9 197.8 340.2 198.1 341.5 197.3 341.7 196L345.3 181.1 359.8 171.7 352.1 205.8C352 206.5 352.2 206.9 352.8 207.7 353 208.1 353.3 208.5 353.9 208.7 355.3 208.9 356.9 207.9 357.2 206.6L365.9 167.8 375.1 161.8 396.4 172.7 397.4 184 370.2 213.6C369.7 214.5 369.4 215.8 369.9 216.6 370.2 217 370.2 217 370.6 216.8 371.4 218 373.1 218 374.1 216.8L397.3 190.9 398.4 208.5 388 219.8C387.4 220.7 387.6 221.8 388.1 222.6 388.1 222.6 388.3 223 388.3 223 389.1 224.2 390.9 224.2 391.8 223.1L398.7 215.2 399.5 227.8C399.3 228.5 399.6 228.9 399.8 229.3 400.4 230.1 401.3 230.7 401.7 230.4 403.4 230.4 404.4 229.2 404.6 227.9L403.9 215.3 411.1 222C412.3 223 414 223 415 221.8 415.5 220.9 415.6 219.2 414.6 218.6L403.3 208.2 402.5 191 428.4 214.3C429.6 215.2 431.1 214.9 432.3 214.1 432.8 213.1 432.8 211.4 431.7 210.5ZM416.9 156.6L401.2 166.7 398.7 168.3 396.2 167.1 380 158.7 377.2 157.1 377.1 154.3 376.2 136 376.1 133.2 378.5 131.7 394.2 121.5 396.6 119.9 399.2 121.2 415.4 129.5 417.9 130.8 418.3 134 419.2 152.2 419.3 155 416.9 156.6Z" fill="rgba(138, 42, 45, 1)"></path><path d="M1419.5 570L1407.3 561.1 1416.4 556.6C1417.4 556.3 1418 554.9 1417.7 553.4 1416.8 552.3 1415.4 551.7 1414.4 552.1L1402.3 557.7 1391 549.4 1415.7 538.3C1417.2 537.4 1417.8 536 1417 535 1416.6 533.5 1415.2 532.9 1413.7 533.7L1386.5 546.1 1376.1 538.9 1378.9 509.7 1389 504.9 1414.7 523.7C1415.1 523.7 1415.6 523.8 1416.1 523.8 1416.6 523.9 1417.6 523.5 1418.1 523.1 1419.2 521.7 1418.9 520.2 1417.5 519.6L1394 502.5 1406.6 496.9 1418.8 505.3C1418.8 505.8 1419.2 505.8 1419.7 505.9 1420.7 505.9 1421.7 505.6 1422.3 504.6 1422.8 503.7 1422.5 502.3 1421.6 501.2L1411.6 494.5 1427.3 487.3C1428.3 486.9 1428.9 485.5 1428.5 484 1427.7 483 1426.3 482.4 1425.3 482.8L1410.7 489.6 1411.6 479.5C1411.7 478.1 1410.4 477 1409.4 476.9 1408 476.8 1406.5 477.6 1406.3 479L1405.1 491.9 1392.6 497.5 1395.1 470.7C1395.2 469.3 1394.3 468.3 1392.9 468.1 1391.5 468 1390.4 468.9 1390.3 470.3L1387.5 499.9 1376.9 505.2 1353 488 1354 477 1381.7 464.2C1383.2 463.8 1383.9 462 1383 460.9 1382.6 459.4 1381.2 459.3 1379.7 459.7L1354.5 471.3 1355.8 457.4 1368.4 451.8C1369.4 451.4 1370.1 449.6 1369.7 448.6S1367.4 446.9 1366 447.3L1356.4 451.7 1358 434.9C1358.1 433.5 1356.7 432.4 1355.3 432.3 1354.4 432.2 1352.8 433 1352.7 434.4L1351.1 451.2 1342.1 445C1341.1 444.4 1339.7 444.3 1338.6 445.6 1338.1 446.6 1338.4 448.5 1339.3 449.1L1350.6 456.9 1349.3 470.8 1326.7 454.6C1325.3 454 1323.9 453.9 1322.8 455.2 1322.2 456.2 1322.5 458.1 1323.4 458.7L1348.7 476.5 1347.7 487.5 1321 499.9 1311.5 492.7 1314.3 463.1C1314.5 461.7 1313.6 460.6 1312.2 460.5 1310.7 460.4 1309.2 461.2 1309.1 462.6L1306.5 489.4 1295.2 481.6 1296.4 468.7C1296.6 467.2 1295.7 466.2 1294.3 466.1 1292.8 465.9 1291.8 466.8 1291.7 468.2L1290.7 478.3 1277.6 468.8C1276.7 468.3 1274.8 468.5 1274.2 469.5 1273.6 470.8 1273.4 472.3 1274.8 472.9L1288.3 482.8 1277.8 487.6C1276.7 488.5 1276.1 489.9 1276.5 490.9 1276.9 491.9 1277.8 492.5 1278.8 492.6 1278.8 492.6 1279.2 492.6 1279.8 492.2L1293.3 486.2 1304.6 494 1278.4 506.5C1276.9 506.8 1276.3 508.2 1277.1 509.8 1277.6 510.3 1278 510.8 1279 510.9 1279.4 510.9 1279.9 511 1280.4 511L1309.2 497.3 1318.2 504 1315.4 533.1 1303.8 538.3 1279.4 521.1C1278.1 520 1276.6 520.3 1276 521.7 1275 522.6 1275.3 524 1276.6 525.1L1298.8 540.7 1286.2 546.8 1275.3 539C1274.4 538.4 1272.9 538.8 1271.9 539.6 1271.3 541 1271.2 542.5 1272.5 543.1L1280.6 549.1 1267 555.6C1265.5 555.9 1265.4 557.3 1265.8 558.8 1266.2 559.3 1267.1 559.9 1268.1 560 1268.1 560 1268.5 560 1269 560.1L1283.6 553.3 1282.5 565.2C1282.4 566.2 1283.2 567.7 1284.7 567.8 1286.1 568 1287.2 566.6 1287.3 565.7L1288.7 550.9 1301.3 544.8 1298.6 574C1298.4 575.4 1299.8 576.5 1301.2 576.6S1303.7 575.9 1303.8 574.5L1306.8 542.4 1317.4 537.7 1341.3 554.9 1340.2 567.3 1312 580.1C1310.9 580.9 1310.3 582.3 1310.6 583.8 1311.1 584.3 1312 584.9 1312.9 585 1313.4 585 1313.9 585.1 1314.4 584.6L1339.6 573 1338.3 586.9 1325.7 592.9C1324.7 593.3 1324.1 594.7 1324.4 596.2 1325.3 597.2 1326.7 597.8 1327.7 597.5L1337.8 592.6 1336.3 607.9C1336.2 608.9 1337.5 610.4 1338.5 610.5 1339.9 610.7 1341.5 609.4 1341.6 608.4L1343 593.1 1351.6 599.7C1352 599.7 1352.5 599.8 1353 599.8 1354 599.9 1355 599.5 1355.5 599.1 1356.1 597.7 1355.8 596.2 1354.9 595.2L1343.6 587.4 1344.9 573.5 1367.5 589.6C1368.8 590.7 1370.3 590.4 1370.9 589.5 1371.9 588.1 1371.6 586.6 1370.7 585.6L1345.4 567.8 1346.6 555.4 1373.3 542.9 1382.8 549.6 1379.8 581.6C1379.7 583.1 1380.5 584.1 1382 584.3 1383.4 584.4 1384.4 583.5 1384.6 582.1L1387.3 552.9 1398.6 561.2 1397.2 576C1397.1 577 1398.4 578.6 1399.8 578.7 1401.3 578.8 1402.4 577.5 1402.5 576.5L1403.6 564.6 1416.7 574C1417.1 574.1 1417.1 574.1 1417.6 574.1 1418.6 574.2 1419.6 573.8 1420.1 573.4 1420.7 572 1420.4 570.5 1419.5 570ZM1347.1 549.6L1344.1 550.8 1341.9 549.1 1322.5 535.2 1320.2 533.6 1320.5 530.7 1322.7 507.3 1323 504.4 1325.5 503.2 1347.2 493.2 1349.7 492 1352.4 493.7 1371.4 507.6 1374.1 509.3 1373.8 512.1 1371.6 535.5 1371.3 538.4 1368.3 539.6 1347.1 549.6Z" fill="rgba(138, 42, 45, 1)"></path><path d="M895.4 582.3L865.5 556.3 864.4 545.4 884.6 531.6 894.8 536.3 907.7 573.9C908 574.3 908 574.3 908.3 574.7 908.8 575.5 909.7 576 911.2 575.6 912.4 574.8 912.9 573.9 912.5 572.4L901.1 539.5 916.6 546.9 921.8 561.4C921.8 561.4 922.1 561.8 922.1 561.8 922.6 562.6 923.6 563.1 925 562.7 926.1 562.5 926.7 560.9 926.3 559.4L923.3 549.9 934.7 555.5C935.6 556 937.1 555.6 938 554.4S937.8 551.6 936.6 550.7L925.5 545.5 934.8 542C936.2 541.6 936.9 540 936.5 538.6 935.9 537.8 934.7 536.8 933.3 537.3L918.8 542.5 903 534.7 935.9 523.3C937.4 522.8 938 521.2 937.9 520.2 937 519 935.8 518.1 934.4 518.5L897 531.8 886.5 526.8 884.8 503 894.3 496.4 933.4 503.4C934.7 503.7 935.9 502.9 936.2 501.6S935.6 499 934.3 498.8L899.9 492.7 914.5 482.6 929.2 485.4C930.5 485.6 931.7 484.8 932.4 483.2S931.8 480.7 930.5 480.4L920.1 478.8 930.8 471.5C932 470.7 931.9 469 931.1 467.8 930.3 466.6 929 466.4 927.8 467.2L917.1 474.5 919 464.5C919.6 462.9 918.8 461.7 917.1 461.7 915.7 461.4 914.5 462.3 914.3 463.6L911.5 478.3 896.9 488.3 903.7 454C903.9 452.7 902.8 451.1 901.5 450.8S899 451.4 898.7 452.7L891.3 492.1 881.8 498.6 860 487.9 859.3 476.8 885.3 446.8C886.3 445.6 885.8 444.1 885 442.9 883.8 442 882.4 442.4 881.2 443.2L858.6 469.7 857.3 452.5 867.4 441C868.3 439.8 867.9 438.3 867.1 437.1 866.2 436.6 864.5 436.6 863.5 437.8L857 445.2 855.9 432.6C855.7 431.5 854.5 430.6 853.2 430.4 851.7 430.8 850.8 432 851 433L852 445.7 844 439C843 438.5 841.3 438.5 840.8 439.4 839.6 440.2 839.7 441.3 840.6 442.5 840.6 442.5 840.8 442.9 840.8 442.9L852.4 453 853.7 470.2 827.2 447.6C826 446.7 824.6 446.4 823.7 447.6 822.8 448.8 822.9 449.9 823.5 450.7 823.7 451.1 823.7 451.1 823.7 451.1L854.4 477.2 855.1 488.4 834.9 502.2 825.1 497.3 811.5 459.5C811.3 458.4 809.7 457.8 808.6 457.9 807.2 458.3 806.5 459.9 807 461.4L818.4 494.3 802.9 486.9 797.6 472.4C797.2 471 796 470 794.8 470.9 793.4 471.3 792.7 472.9 792.9 473.9L796.6 483.6 785.2 478C783.9 477.8 782.4 478.2 781.5 479.4 781.3 480.1 781.5 481.1 782 481.9 782.3 482.3 782.3 482.3 783 482.4L794.4 488 784.7 491.7C783.2 492.2 783 493.5 783.1 494.6 783.4 494.9 783.4 494.9 783.7 495.3 784.2 496.1 785.1 496.7 786.2 496.5L800.7 491.3 816.2 498.7 783.3 510.1C782.1 510.9 781.2 512.2 782 513.3 781.9 514 781.9 514 782.1 514.4 782.7 515.2 784 515.4 785.1 515.3L822.9 501.7 832.7 506.6 834.7 530.8 825.6 537.1 786.2 529.7C784.9 529.4 783.3 530.5 783 531.8S783.9 534.8 785.2 535L819.6 541.1 805.3 550.9 790.3 548.4C788.9 548.1 787.7 549 787.5 550.3 787.2 551.6 788.1 552.8 789.4 553.1L799.4 554.9 788.7 562.3C787.9 562.8 787.3 564.4 788.1 565.6 788.9 566.8 790.9 567.2 791.7 566.6L802.4 559.3 800.5 569.3C800.4 570 800.2 570.6 800.5 571 801.1 571.8 801.7 572 802.4 572.1 803.7 572.3 804.9 571.5 805.2 570.2L808.3 555.2 822.6 545.5 815.8 579.8C815.7 580.4 815.9 580.8 816.5 581.6 816.8 582 817 582.4 817.7 582.6 819 582.8 820.6 581.7 820.9 580.4L828.5 541.4 837.6 535.2 859.2 545.5 860.5 556.8 834.1 587C833.6 588 833.4 589.3 833.9 590.1 834.2 590.5 834.2 590.5 834.6 590.2 835.4 591.4 837.1 591.4 838 590.2L860.6 563.7 862.1 581.2 852 592.8C851.5 593.7 851.7 594.8 852.2 595.6 852.2 595.6 852.5 596 852.5 596 853.3 597.2 855 597.2 855.9 596L862.6 587.9 863.7 600.5C863.6 601.2 863.9 601.6 864.1 602 864.7 602.8 865.6 603.3 866 603 867.7 603 868.6 601.8 868.9 600.5L867.8 587.8 875.2 594.4C876.4 595.3 878.2 595.3 879.1 594.1 879.6 593.1 879.6 591.4 878.6 590.9L867.1 580.8 865.8 563.6 892.3 586.2C893.5 587.1 895 586.7 896.2 585.9 896.7 585 896.7 583.2 895.4 582.3ZM879.2 528.8L863.8 539.4 861.4 541 858.9 539.9 842.4 531.9 839.6 530.4 839.4 527.6 838 509.4 837.8 506.6 840.2 504.9 855.7 494.4 858.1 492.7 860.6 493.9 877.1 501.8 879.6 503 880 506.2 881.5 524.4 881.6 527.2 879.2 528.8Z" fill="rgba(138, 42, 45, 1)"></path><path d="M1187.1 237.6L1191.2 223.1 1198.5 230C1199.2 230.8 1200.7 230.9 1202 230.1 1202.7 228.9 1202.8 227.4 1202 226.6L1192.6 217.2 1196.4 203.8 1215.5 222.9C1216.8 224.1 1218.3 224.2 1219 223 1220.2 222.2 1220.3 220.6 1219 219.5L1197.9 198.4 1201 186.1 1229.3 178.4 1237.4 186.2 1228.8 216.9C1228.9 217.3 1229 217.8 1229.1 218.3 1229.3 218.7 1230 219.5 1230.6 219.9 1232.2 220.4 1233.5 219.6 1233.6 218.1L1241.4 190.1 1251 199.9 1247.5 214.3C1247 214.4 1247.1 214.9 1247.2 215.3 1247.5 216.3 1248.2 217.1 1249.3 217.3 1250.3 217.5 1251.6 216.7 1252.3 215.5L1255.1 203.8 1267.3 215.9C1268 216.7 1269.5 216.8 1270.8 215.9 1271.4 214.8 1271.5 213.2 1270.8 212.4L1259.3 201.1 1269 198.5C1270.4 198.1 1271 196.5 1270.7 195.6 1270.4 194.2 1269 193 1267.7 193.4L1255.1 196.8 1245.5 187 1271.5 179.9C1272.9 179.6 1273.5 178.4 1273.2 177 1272.8 175.6 1271.6 174.9 1270.2 175.3L1241.5 183.1 1232.8 175 1240.5 146.5 1251.2 143.7 1272.9 165.1C1273.8 166.4 1275.7 166.4 1276.4 165.2 1277.7 164.3 1277.3 162.9 1276.5 161.7L1256.8 142.2 1270.2 138.5 1279.8 148.3C1280.5 149.1 1282.5 149.1 1283.3 148.4S1284.1 145.7 1283.2 144.4L1275.8 137 1292 132.6C1293.4 132.2 1293.9 130.6 1293.5 129.2 1293.3 128.3 1292 127.1 1290.6 127.5L1274.4 131.9 1277 121.3C1277.2 120.2 1276.8 118.8 1275.2 118.3 1274.1 118.1 1272.4 119 1272.2 120.1L1268.8 133.4 1255.4 137.1 1262.5 110.3C1262.6 108.7 1262.3 107.3 1260.6 106.8 1259.6 106.6 1257.8 107.5 1257.6 108.6L1249.8 138.6 1239.2 141.4 1218.2 120.8 1221.5 109.4 1250.3 101.6C1251.7 101.3 1252.3 100.1 1252 98.7 1251.6 97.3 1250.3 96.2 1248.9 96.5L1222.9 103.6 1226.3 90.2 1238.8 86.8C1240.2 86.5 1240.9 85.3 1240.5 83.9 1240.1 82.5 1238.9 81.8 1237.5 82.2L1227.8 84.8 1232.1 69.3C1232.3 68.2 1231.3 66.5 1230.3 66.3 1228.7 66.2 1227.3 66.6 1227.3 68.1L1222.7 84.2 1214.5 76C1213.3 75.3 1211.8 75.3 1211 76 1210.2 76.7 1210 77.7 1210.2 78.7 1210.2 78.7 1210.4 79.1 1210.9 79.5L1221.3 90.1 1217.9 103.4 1197 83.2C1196.2 82 1194.7 81.9 1193.6 83.2 1193.2 83.8 1192.9 84.4 1193.1 85.3 1193.3 85.7 1193.4 86.2 1193.5 86.7L1216.4 108.8 1213.4 119.6 1185.1 127.2 1176.2 118.2 1183.8 89.3C1184.3 87.7 1183.5 86.4 1182 86.3 1180.8 85.6 1179.5 86.5 1179 88.1L1172.2 114.3 1162.1 104.6 1165.5 91.8C1165.8 90.7 1164.9 89.4 1163.7 88.8 1162.2 88.7 1160.8 89.1 1160.7 90.6L1157.9 100.3 1147.1 89.8C1146.3 88.5 1144.9 88.9 1143.6 89.7 1143.3 90.3 1143.1 91.4 1143.3 92.3 1143.3 92.3 1143.4 92.8 1143.6 93.2L1155.1 104.5 1143.5 107.7C1142.6 107.9 1141.4 109.2 1141.8 110.6 1142.2 112 1143.8 112.6 1144.8 112.3L1159.1 108.4 1169.2 118.1 1140.9 125.8C1139.5 126.2 1139 127.8 1139.4 129.2S1140.9 131.2 1142.3 130.9L1173.4 122.5 1181.6 130.7 1173.8 159.1 1161.8 162.4 1139.9 140.5C1138.8 139.8 1137.2 139.7 1136 140.5 1135.6 141.1 1135.4 142.2 1135.7 143.1 1135.8 143.6 1135.9 144 1136.5 144.4L1156.2 163.9 1142.8 167.5 1132.7 157.8C1132 157 1130.5 157 1129.2 157.8 1128.5 159 1128.5 160.5 1129.2 161.3L1137.2 169 1122.4 173.1C1121.5 173.3 1120.5 175.1 1120.7 176 1121.1 177.4 1122.9 178.4 1123.8 178.2L1138.6 174.1 1135.4 184.4C1135.6 184.9 1135.7 185.4 1135.8 185.8 1136.1 186.8 1136.8 187.6 1137.4 187.9 1138.9 188 1140.2 187.2 1140.8 186L1144.2 172.6 1157.6 169 1150.4 195.8C1149.9 197.4 1150.7 198.7 1151.8 198.9 1153.4 199.5 1154.7 198.6 1155.4 197.5L1163.2 167.5 1175.2 164.2 1196.2 184.9 1193.3 196.1 1162.3 204.5C1160.9 204.9 1160.2 206.1 1160.6 207.5 1161 208.9 1162.1 209.5 1163.5 209.2L1191.8 201.5 1188 215 1173.6 218.9C1172.7 219.1 1171.7 220.9 1172 222.3 1172.4 223.7 1174.1 224.2 1175 224L1186.6 220.8 1182.3 236.4C1182.5 236.9 1182.5 236.9 1182.6 237.3 1182.8 238.3 1183.5 239.1 1184.1 239.4 1185.6 239.5 1186.9 238.6 1187.1 237.6ZM1180.8 162.7L1178.6 160.3 1179.4 157.6 1185.6 134.6 1186.4 131.9 1189.1 131.1 1211.8 125 1214.6 124.2 1216.6 126.2 1233.6 143 1235.6 144.9 1235 148 1228.7 170.6 1228 173.8 1225.3 174.6 1202.6 180.7 1199.8 181.5 1197.6 179 1180.8 162.7Z" fill="rgba(138, 42, 45, 1)"></path><path d="M1115 303.2L1098.6 322.8 1089.3 323.4 1094.9 316.8C1095.7 316.3 1095.4 315.3 1094.8 314.5 1094.2 314.2 1093 314.2 1092.7 314.8L1084.9 323.7 1075.8 324.6 1079.8 316.4 1091.1 312.4C1091.1 312.4 1091.3 312.3 1091.3 312.3 1091.8 311.9 1092 311 1091.9 310.3 1091.4 309.5 1090.7 309.2 1089.8 309.5L1081.6 312.4 1085.7 304.1 1109.5 295.3C1109.5 295.3 1110 295.4 1110 295.4 1110.5 295 1110.7 294.1 1110.6 293.4 1110.3 292.5 1109.2 292 1108.4 292.6L1087.5 300.1 1092.1 289.9 1101.5 286.5C1101.5 286.5 1101.5 286.5 1101.7 286.3 1102.3 286 1102.6 285.3 1102.5 284.6 1102 283.8 1101.1 283.2 1100.2 283.5L1094 285.8 1097.4 278.4C1098 277.6 1097.5 276.8 1096.8 276.5 1096 275.9 1095.1 276.1 1094.6 277.2L1091 284.4 1089.2 278.3C1088.6 277.5 1087.8 276.9 1087 277.5 1086 277.7 1085.7 278.4 1086 279.3L1089.4 288.7 1084.6 298.6 1076.9 277.5C1076.8 276.8 1075.7 276.3 1074.7 276.6 1074.2 277 1073.6 277.8 1073.9 278.8L1082.7 302.7 1078.7 310.9 1075.8 302.8C1075.5 301.8 1074.6 301.7 1073.6 302 1072.9 302.1 1072.5 303.1 1072.6 303.8L1076.8 314.9 1073 323.4 1067.7 315.8 1069.8 304.2C1069.9 303.4 1069.4 302.6 1068.5 302.4 1067.9 302.1 1066.8 302.8 1066.7 303.7L1065.1 312.1 1059.8 304.5 1064.6 279.4C1064.7 278.5 1064.2 277.7 1063.3 277.6 1062.4 277.4 1061.6 278 1061.5 278.8L1057.3 300.8 1051.1 291.9 1052.8 282.1C1053 281.2 1052.4 280.4 1051.6 280.3 1050.7 280.1 1049.9 280.7 1049.7 281.6L1048.3 288 1043.8 281.4C1043.2 280.6 1042.3 280.5 1041.5 281 1040.7 281.6 1040.6 282.4 1041.1 283.2L1045.7 289.8 1039.5 288.7C1038.6 288.5 1037.8 289.1 1037.6 290S1038 291.6 1038.9 291.8L1048.3 293.5 1054.7 302.7 1032.8 298.7C1031.9 298.6 1031.1 299.1 1031 300 1030.8 300.9 1031.4 301.7 1032.3 301.9L1057.2 306.4 1062.5 314 1054 312.5C1053.1 312.3 1052.4 312.8 1052.2 313.7 1052 314.6 1052.6 315.4 1053.5 315.6L1065.1 317.7 1070.2 325 1061.3 325.7 1052.1 318.1C1051.5 317.7 1050.3 317.8 1050 318.4 1049.4 319.2 1049.5 319.9 1050 320.7L1056.6 326.3 1047.8 327 1028.2 310.6C1027.4 310 1026.7 310.1 1025.9 310.6 1025.3 311.4 1025.5 312.4 1025.9 312.9L1043.1 327.5 1031.9 328.2 1024.5 322.1C1023.9 321.3 1023 321.6 1022.2 322.1 1021.8 322.8 1021.9 323.9 1022.7 324.5L1027.5 328.6 1019.5 329.5C1018.6 329.3 1018 330.1 1018 331.3 1018.1 332 1018.9 332.6 1019.6 332.5L1027.8 331.9 1023.4 336.8C1022.8 337.6 1023.1 338.6 1023.8 339 1024.3 339.7 1025 339.6 1025.5 339.3 1025.8 339.1 1025.8 339.1 1026.1 338.9L1032.2 331.5 1043.4 330.8 1029.1 347.7C1028.3 348.3 1028.6 349.3 1029.1 350 1029.7 350.4 1030.5 350.3 1031 349.9 1031.2 349.7 1031.2 349.7 1031.2 349.7L1048.1 330.2 1056.9 329.5 1051.4 336.1C1050.8 336.9 1050.9 337.6 1051.4 338.4 1052.1 338.8 1053 338.9 1053.5 338.6 1053.7 338.4 1053.7 338.4 1054 338.2L1061.6 329 1070.5 328.3 1066.8 336.4 1055.7 340.6C1054.7 340.8 1054.3 341.9 1054.4 342.6 1054.9 343.4 1055.7 344 1056.5 343.5L1064.6 340.6 1061 348.9 1036.7 357.6C1036 357.7 1035.6 358.8 1035.7 359.5 1036.2 360.3 1037 360.9 1038 360.6L1058.9 353.1 1054.1 363 1045.1 366.2C1044.1 366.5 1043.7 367.6 1044.2 368.4 1044.3 369.1 1045.1 369.7 1046.1 369.4L1052.3 367.1 1048.9 374.5C1048.5 375.1 1048.8 376.1 1049.6 376.7 1050 376.8 1050.8 376.7 1051.3 376.3 1051.3 376.3 1051.5 376.1 1051.8 376L1055.2 368.5 1057.6 374.7C1057.7 375.4 1058.7 375.8 1059.4 375.7 1059.7 375.5 1059.7 375.5 1059.7 375.5 1060.5 375 1060.7 374.1 1060.3 373.6L1057.1 364.5 1061.7 354.3 1069.4 375.4C1069.9 376.2 1070.6 376.6 1071.5 376.3 1071.5 376.3 1071.8 376.1 1071.8 376.1 1072.3 375.7 1072.7 375.1 1072.4 374.1L1063.8 350.1 1067.6 342 1070.5 350.1C1071 350.9 1071.8 351.5 1072.6 351 1072.8 351.2 1073.1 351.1 1073.1 351.1 1073.6 350.7 1073.8 349.8 1073.7 349.1L1069.4 338 1073.5 329.7 1078.6 337.1 1076.5 348.7C1076.3 349.6 1077.1 350.6 1078 350.8 1078.7 350.7 1079.4 350.1 1079.8 349.5L1081.1 340.8 1086.4 348.4 1081.9 373.3C1081.8 374.2 1082.3 375 1083.2 375.2 1084.1 375.3 1084.9 374.8 1085.1 373.9L1089 352.1 1095.4 361.3 1093.7 370.6C1093.5 371.5 1094.1 372.3 1095 372.5S1096.7 372.1 1096.8 371.2L1097.9 365 1102.5 371.5C1103 372.3 1103.9 372.5 1104.7 371.9 1105.5 371.4 1105.7 370.5 1105.1 369.7L1100.6 363.1 1107.1 364.1C1107.5 364.1 1107.9 364.2 1108.2 364 1108.5 363.9 1108.8 363.2 1108.9 362.8 1109.1 361.9 1108.5 361.1 1107.6 360.9L1098 359.4 1091.6 350.2 1113.7 354C1114.1 354.1 1114.6 354.2 1114.9 354 1115.1 353.8 1115.5 353.2 1115.5 352.7 1115.7 351.8 1115.2 351 1114.3 350.9L1089.1 346.6 1083.8 339 1092.4 340.7C1092.8 340.8 1093.4 340.5 1093.6 340.3 1093.9 340.1 1094.2 339.9 1094.2 339.5 1094.4 338.6 1093.7 337.5 1093 337.6L1081.2 335.3 1076.1 327.9 1085.2 327 1094.2 334.8C1094.8 335.2 1095.7 335.3 1096.2 335 1096.5 334.8 1096.5 334.8 1096.3 334.5 1097.1 334 1097 332.8 1096.2 332.2L1089.6 326.7 1098.8 325.8 1118.3 342.6C1118.9 343 1119.6 342.9 1120.1 342.5 1120.4 342.3 1120.4 342.3 1120.4 342.3 1121 341.5 1121.2 340.6 1120.4 340L1103.2 325.4 1114.4 324.7 1121.8 330.8C1122.6 331.5 1123.3 331.3 1123.8 331 1123.8 331 1124.1 330.8 1124.1 330.8 1124.7 330 1124.4 329 1124 328.5L1118.8 324.3 1127 323.7C1127.2 323.6 1127.5 323.4 1127.7 323.2 1128 323 1128.4 322.4 1128.4 321.9 1128.1 321 1127.6 320.2 1126.6 320.5L1118.5 321.1 1122.8 316.1C1123.4 315.3 1123.1 314.3 1122.8 313.8 1122 313.2 1121 313.5 1120.2 314L1114 321.4 1103.1 322.4 1117.4 305.5C1118 304.6 1118 303.5 1117.3 303.1 1116.5 302.5 1115.6 302.4 1115 303.2Z" fill="rgba(138, 42, 45, 1)"></path><path d="M59.7 522.8L89.7 511.9 100.1 517 90 520.7C88.8 520.8 88.5 522 88.6 523.2 89.1 523.9 90.3 524.6 91.1 524.2L105.1 519.4 115.6 524.1 106.1 530.5 91.4 527.8C91.4 527.8 91 527.8 91 527.8 90.2 527.9 89.5 528.7 89.2 529.6 89.3 530.8 89.7 531.5 90.9 531.8L101.5 533.7 92.1 540.2 60.7 534.8C60.7 534.8 60.3 534.4 60.3 534.4 59.5 534.5 58.7 535.3 58.4 536.2 58.1 537.4 59 538.5 60.2 538.4L87.5 543.3 76.2 551.5 63.9 549.4C63.9 549.4 63.9 549.4 63.5 549.4 62.7 549.5 62 549.9 61.6 550.8 61.7 551.9 62.2 553.1 63.5 553.4L71.6 554.7 63.3 560.7C62.1 561.2 62.2 562.3 62.7 563.1 63.2 564.3 64.4 564.6 65.5 563.7L73.9 558.1 72.2 565.9C72.3 567.1 72.8 568.3 73.9 568.2 75.2 568.5 75.9 568 76.2 566.8L78.4 554.6 89.8 546.8 84.9 574.5C84.6 575.3 85.5 576.4 86.7 576.7 87.5 576.7 88.7 576.2 89 574.9L94.3 543.6 103.8 537.2 101.9 547.8C101.6 549 102.5 549.7 103.7 550 104.6 550.3 105.7 549.4 106 548.6L108.4 534 117.8 527.1 118.8 538.7 109.3 549.9C108.6 550.8 108.7 552 109.6 552.7 110 553.5 111.6 553.4 112.4 552.5L119.3 544.3 120.3 555.8 99.4 580.1C98.7 580.9 98.8 582.1 99.7 582.9 100.5 583.6 101.7 583.5 102.5 582.6L120.7 561.4 121.9 575 113.9 584.5C113.1 585.3 113.2 586.5 114.1 587.3 115 588 116.2 587.9 116.9 587L122.4 580.9 123.2 590.9C123.3 592.1 124.2 592.8 125.4 592.7 126.6 592.6 127.3 591.8 127.2 590.6L126.4 580.6 132.4 585.7C133.3 586.4 134.5 586.3 135.2 585.5S135.9 583.4 135 582.7L125.9 575 124.7 561.1 145.9 579C146.8 579.7 148 579.6 148.7 578.7 149.4 577.9 149.3 576.7 148.5 575.9L124.3 555.5 123.3 543.9 131.5 550.9C132.4 551.6 133.6 551.5 134.3 550.6 135 549.8 134.9 548.6 134 547.8L122.8 538.4 121.9 527.2 131.9 532 137.1 546C137.6 546.7 138.8 547.4 139.6 547 140.8 546.5 141.1 545.6 141 544.4L137.3 534.3 147.4 539.1 158.3 569.1C158.8 570.2 159.7 570.6 160.8 570.5 162 570 162.3 568.7 162.2 567.9L152.8 541.4 165.3 547.6 169.5 558.9C169.6 560.1 170.8 560.4 172 560.3 172.8 559.8 173.5 558.6 173 557.4L170.4 550 179.5 554C180.4 554.8 181.6 554.3 182.3 553 182.6 552.2 182.1 551 181.3 550.7L172 546.2 179.9 543.6C181 543.1 181.3 541.8 180.8 541.1 180.7 539.9 179.9 539.6 179.1 539.6 178.7 539.7 178.7 539.7 178.3 539.7L167 543.9 154.5 537.7 180.6 528.3C181.8 528.2 182.1 526.9 182 525.7 181.5 525 180.7 524.6 179.9 524.7 179.5 524.7 179.5 524.7 179.5 524.7L149 535.3 139 530.6 149.1 526.9C150.3 526.4 150.6 525.6 150.5 524.4 150.1 523.6 149.2 522.9 148.4 522.9 148 523 148 523 147.6 523L133.6 528.2 123.6 523.4 132.7 517.1 147.3 519.4C148.5 519.7 149.7 518.8 150 518 149.9 516.8 149.4 515.6 148.2 515.7L137.6 513.8 146.7 507 178.5 512.8C179.3 513.1 180.4 512.2 180.7 511.4 180.6 510.2 180.1 509 178.9 508.7L151.6 503.8 163 496 174.8 498.2C176 498.5 177.2 497.6 177.1 496.4 177.4 495.6 176.9 494.4 175.7 494.2L167.5 492.8 175.9 486.9C176.6 486.4 176.9 485.2 176.4 484.1 176 483.7 175.2 483.4 174.4 483.4 174.4 483.4 174 483.5 173.6 483.5L165.2 489.4 166.6 481.3C166.9 480.4 166 479.3 165.2 479 164.8 479 164.8 479 164.8 479 163.6 479.1 162.8 480 162.9 480.8L160.7 492.6 149.3 500.8 154.2 473.1C154.1 471.9 153.7 471.1 152.4 470.8 152.4 470.8 152 470.9 152 470.9 151.2 470.9 150.5 471.4 150.2 472.6L144.4 504 135.3 510.4 137.2 499.8C137.1 498.6 136.6 497.5 135.4 497.6 135.4 497.2 135 497.2 135 497.2 134.2 497.3 133.5 498.1 133.1 498.9L130.8 513.6 121.3 520 120.3 508.9 129.8 497.6C130.5 496.8 130.4 495.2 129.5 494.4 128.7 494.1 127.5 494.2 126.7 494.7L119.8 503.3 118.9 491.7 139.3 467.5C140 466.7 139.9 465.5 139.1 464.7 138.2 464 137 464.1 136.3 465L118.4 486.1 117.2 472.2 124.9 463.1C125.6 462.3 125.5 461.1 124.6 460.3S122.6 459.7 121.9 460.6L116.7 466.6 115.9 456.6C115.8 455.5 114.9 454.7 113.7 454.8 112.5 454.9 111.8 455.8 111.9 457L112.8 467 106.3 461.9C105.9 461.5 105.4 461.1 105 461.2 104.7 461.2 103.9 461.7 103.5 462.1 102.8 463 102.9 464.2 103.8 464.9L113.2 472.5 114.4 486.5 92.8 468.6C92.4 468.3 92 467.9 91.6 467.9 91.2 468 90.4 468.4 90 468.9 89.3 469.7 89.4 470.9 90.3 471.7L114.9 492.1 115.9 503.6 107.6 496.3C107.2 495.9 106.4 496 106 496 105.6 496.1 105.2 496.1 104.8 496.5 104.1 497.4 104.2 499 105.1 499.3L116.3 509.2 117.3 520.4 106.8 515.6 102 501.6C101.6 500.8 100.7 500.1 99.9 500.2 99.5 500.2 99.5 500.2 99.5 500.6 98.4 500.7 97.7 501.9 98.2 503.1L101.8 513.2 91.4 508.5 80.8 478.1C80.3 477.3 79.5 477 78.7 477.1 78.3 477.1 78.3 477.1 78.3 477.1 77.1 477.6 76.4 478.5 76.9 479.6L86.4 506.1 73.8 499.9 69.6 488.7C69.1 487.5 68.3 487.2 67.5 487.2 67.5 487.2 67.1 487.3 67.1 487.3 65.9 487.8 65.7 489 65.7 489.8L68.8 497.6 59.6 493.1C59.2 493.2 58.8 493.2 58.4 493.2 58 493.3 57.2 493.7 56.9 494.2 56.6 495.4 56.7 496.6 57.9 496.9L67.1 501.3 59.3 504C58.1 504.5 57.8 505.7 57.9 506.5 58.4 507.7 59.6 508 60.8 507.9L72.1 503.7 84.6 509.5 58.5 518.9C57.4 519.4 56.7 520.7 57.2 521.4 57.7 522.6 58.5 523.3 59.7 522.8Z" fill="rgba(138, 42, 45, 1)"></path><path d="M704.8 376.9L679.2 370.2 675.4 363.9 683.4 349.8 690.9 349.6 709.7 368.3C710 368.5 710 368.5 710.2 368.6 710.8 369 711.5 369 712.3 368.3 712.7 367.5 712.8 366.8 712.1 366L695.6 349.7 707.1 349.6 714.5 356.7C714.5 356.7 714.7 356.8 714.7 356.8 715.3 357.1 716 357.2 716.8 356.5 717.4 356.1 717.3 355 716.6 354.2L712 349.4 720.4 349.4C721.1 349.4 721.9 348.8 722.1 347.8S721.2 346.1 720.2 345.9L712 346.1 716.6 341.3C717.3 340.6 717.2 339.5 716.5 338.7 716 338.4 715 338.2 714.2 338.9L707.1 346.3 695.4 346.2 711.7 329.7C712.5 329.1 712.4 327.9 712 327.3 711.1 326.8 710.2 326.6 709.4 327.3L690.9 346.3 683.2 346.3 675.2 332.6 679 325.9 704.4 318.6C705.3 318.4 705.8 317.5 705.5 316.7S704.4 315.3 703.6 315.6L681.2 322 687 311.7 696.6 309C697.5 308.8 697.9 307.9 697.9 306.8S696.8 305.5 695.9 305.7L689.2 307.8 693.5 300.3C694 299.4 693.4 298.4 692.6 297.9 691.8 297.5 690.9 297.7 690.4 298.5L686.2 306 684.3 299.5C684.3 298.3 683.4 297.9 682.4 298.4 681.5 298.6 681.1 299.5 681.3 300.3L683.9 309.9 678.1 320.2 672.1 297.7C671.9 296.8 670.8 296.2 669.9 296.4S668.5 297.5 668.8 298.4L675.9 324.1 672.1 330.8 655.9 330.8 652.2 324.3 659 298.7C659.2 297.8 658.5 297 657.7 296.5 656.7 296.3 656 297 655.5 297.8L649.7 320.3 643.9 310.4 646.6 300.5C646.8 299.5 646.1 298.8 645.3 298.3 644.6 298.3 643.5 298.8 643.3 299.8L641.6 306.1 637.2 298.9C636.8 298.3 635.8 298.1 635 298.3 634.2 299 634 300 634.4 300.6L638.8 307.9 632 306.2C631.3 306.2 630.2 306.7 630.2 307.4 629.7 308.2 630.1 308.8 631 309.3 631 309.3 631.2 309.5 631.2 309.5L641.1 312.1 646.9 322 624.4 316.3C623.4 316.1 622.6 316.3 622.4 317.3 622.2 318.3 622.6 318.9 623.1 319.2 623.4 319.4 623.4 319.4 623.4 319.4L649.4 326 653.1 332.5 645 346.7 637.7 346.6 618.5 328C618.1 327.4 617 327.5 616.4 327.9 615.6 328.6 615.7 329.7 616.4 330.5L632.9 346.8 621.4 346.9 614 339.8C613.3 339.1 612.4 338.9 611.9 339.7 611.1 340.4 611.2 341.5 611.6 342.1L616.7 346.8 608.2 346.8C607.3 347.1 606.6 347.7 606.4 348.7 606.5 349.2 606.9 349.8 607.5 350.1 607.7 350.2 607.7 350.2 608.2 350.1L616.6 350.1 611.9 355.2C611.2 355.9 611.4 356.7 611.8 357.3 612.1 357.5 612.1 357.5 612.4 357.6 612.9 358 613.6 358 614.2 357.6L621.4 350.2 632.8 350.1 616.5 366.6C616 367.4 615.8 368.4 616.7 368.9 616.8 369.3 616.8 369.3 617.1 369.5 617.6 369.8 618.5 369.6 619.1 369.2L637.7 349.9 645 350 653.3 363.9 649.7 370.3 623.9 377.4C623.1 377.7 622.4 378.8 622.7 379.7S624 381.2 624.9 380.9L647.3 374.5 641.6 384.5 631.9 387.5C631 387.7 630.5 388.5 630.8 389.4 631 390.3 631.9 390.8 632.7 390.5L639.3 388.7 635 396.2C634.7 396.8 634.8 397.9 635.6 398.4 636.4 398.9 637.7 398.5 638.1 398L642.3 390.4 644.1 397C644.3 397.4 644.4 397.9 644.7 398 645.2 398.3 645.6 398.2 646.1 398.1 647 397.9 647.4 397 647.2 396.1L644.7 386.3 650.4 376.3 656.4 398.8C656.5 399.2 656.8 399.4 657.3 399.7 657.6 399.8 657.9 400 658.3 399.9 659.2 399.6 659.8 398.5 659.6 397.7L652.7 372.1 656.4 365.7 672.3 365.5 676.4 371.9 669.5 397.7C669.4 398.5 669.7 399.3 670.2 399.6 670.5 399.8 670.5 399.8 670.7 399.5 671.5 400 672.5 399.5 672.7 398.5L678.5 376 684.5 386.1 681.9 396C681.8 396.7 682.2 397.3 682.8 397.6 682.8 397.6 683.1 397.7 683.1 397.7 683.9 398.2 684.9 397.7 685.1 396.7L686.8 389.9 691.1 397.2C691.3 397.6 691.5 397.8 691.8 397.9 692.4 398.2 693.1 398.3 693.2 398 694.3 397.5 694.5 396.5 694.2 395.6L689.9 388.3 696.2 390.1C697.2 390.3 698.3 389.8 698.4 388.8 698.5 388.1 698 387.1 697.2 387L687.4 384.3 681.6 374.4 704.1 380.2C705 380.4 705.8 379.7 706.3 378.9 706.3 378.2 705.8 377.1 704.8 376.9ZM679.4 349.7L673.3 360.5 672.3 362.2 670.5 362.3 658.3 362.3 656.1 362.2 655.2 360.6 649 350.1 648.1 348.5 649.1 346.8 655.2 335.9 656.2 334.3 658 334.2 670.2 334.2 672.1 334.1 673.3 335.9 679.5 346.4 680.4 348 679.4 349.7Z" fill="rgba(138, 42, 45, 1)"></path><path d="M526.1 526.5L483.5 540.1 469.2 532.4 483.5 527.8C485.2 527.7 485.7 526 485.6 524.4 485 523.3 483.3 522.2 482.2 522.8L462.3 528.8 447.9 521.5 461.6 513.1 482 517.8C482 517.8 482.5 517.8 482.5 517.8 483.6 517.7 484.7 516.6 485.2 515.4 485.1 513.7 484.5 512.6 482.8 512.2L468.1 508.9 481.8 500.4 525.3 509.7C525.3 509.7 525.9 510.2 525.9 510.2 527 510.2 528.1 509 528.6 507.9 529.1 506.2 527.9 504.6 526.2 504.6L488.3 496.2 504.6 485.4 521.6 489.1C521.6 489.1 521.6 489.1 522.2 489.1 523.3 489.1 524.4 488.5 524.9 487.3 524.8 485.6 524.2 484 522.5 483.5L511.2 481.2 523.2 473.4C524.8 472.7 524.7 471.1 524.1 470 523.5 468.3 521.8 467.8 520.2 469L508.2 476.3 511 465.5C511 463.8 510.3 462.2 508.7 462.2 507 461.8 505.9 462.4 505.4 464.1L501.6 481.1 485.3 491.3 493.7 452.8C494.2 451.7 493 450 491.3 449.6 490.2 449.6 488.5 450.2 488 451.9L478.7 495.5 465.1 504 468.4 489.2C468.9 487.5 467.7 486.5 466 486 464.8 485.5 463.2 486.7 462.7 487.8L458.6 508.2 444.9 517.2 444.2 501 458.1 485.8C459.2 484.6 459.1 482.9 458 481.9 457.3 480.8 455.1 480.9 454 482L443.9 493.1 443.2 476.9 473.7 444.2C474.7 443 474.7 441.3 473.5 440.3 472.3 439.2 470.6 439.3 469.6 440.4L442.8 469.1 442 450.1 453.7 437.2C454.8 436 454.7 434.4 453.6 433.3 452.4 432.2 450.7 432.3 449.6 433.5L441.6 441.7 441 427.7C440.9 426 439.7 424.9 438.1 425 436.4 425.1 435.3 426.2 435.4 427.9L436 441.9 427.8 434.4C426.7 433.4 425 433.4 423.9 434.6S422.9 437.4 424.1 438.5L436.4 449.7 437.2 469.3 408.6 443.1C407.4 442.1 405.7 442.1 404.7 443.3 403.6 444.5 403.7 446.1 404.9 447.2L437.6 477.2 438.3 493.4 427.2 483.2C426 482.1 424.3 482.2 423.3 483.4 422.2 484.6 422.3 486.2 423.4 487.3L438.6 501.2 439.3 516.9 425.5 509.6 419.1 489.7C418.5 488.6 416.7 487.6 415.6 488.2 414 488.8 413.5 490 413.5 491.7L418.1 506 404.3 498.8 390.7 456.2C390 454.6 388.9 454.1 387.2 454.2 385.6 454.8 385.1 456.5 385.1 457.6L396.9 495.2 379.7 485.9 374.5 469.9C374.4 468.2 372.7 467.7 371 467.8 369.9 468.4 368.9 470.1 369.5 471.8L372.8 482.3 360.2 476.1C359 475 357.3 475.7 356.3 477.4 355.8 478.5 356.4 480.2 357.6 480.7L370.2 487.4 359.1 490.7C357.5 491.3 357 493 357.6 494.1 357.7 495.8 358.8 496.3 359.9 496.3 360.5 496.3 360.5 496.3 361.1 496.2L377.1 491 394.3 500.4 357.3 512.1C355.6 512.2 355.1 513.9 355.2 515.5 355.8 516.6 356.9 517.2 358.1 517.1 358.6 517.1 358.6 517.1 358.6 517.1L401.8 504 415.5 511.2 401.2 515.8C399.5 516.4 399 517.5 399.1 519.2 399.7 520.3 400.8 521.4 402 521.3 402.5 521.3 402.5 521.3 403.1 521.3L423 514.8 436.7 522 423.7 530.5 403.3 526.3C401.6 525.8 400 527 399.5 528.2 399.5 529.8 400.2 531.5 401.8 531.4L416.6 534.7 403.5 543.7 359.4 533.9C358.2 533.4 356.6 534.5 356.1 535.7 356.1 537.4 356.8 539 358.5 539.5L396.4 547.9 380 558.2 363.6 554.4C361.9 553.9 360.3 555.1 360.4 556.8 359.9 557.9 360.5 559.6 362.2 560.1L373.5 562.4 361.5 570.2C360.4 570.8 359.9 572.5 360.6 574.2 361.2 574.7 362.3 575.2 363.4 575.2 363.4 575.2 364 575.1 364.5 575.1L376.5 567.3 374.2 578.6C373.7 579.8 374.9 581.4 376 581.9 376.6 581.9 376.6 581.9 376.6 581.9 378.3 581.8 379.4 580.6 379.3 579.5L383.1 563.1 399.4 552.3 391 590.8C391.1 592.4 391.7 593.5 393.4 594 393.4 594 394 594 394 594 395.1 593.9 396.2 593.3 396.7 591.6L406.5 548 419.6 539.6 416.3 554.3C416.4 556 417 557.7 418.7 557.6 418.7 558.1 419.3 558.1 419.3 558.1 420.4 558.1 421.5 556.9 422 555.8L426.1 535.4 439.8 526.9 440.5 542.6 426.6 557.8C425.5 559 425.6 561.2 426.8 562.3 427.9 562.8 429.6 562.7 430.7 562.1L440.8 550.4 441.5 566.7 411.6 599.4C410.5 600.5 410.6 602.2 411.7 603.3 412.9 604.4 414.6 604.3 415.7 603.1L441.9 574.5 442.7 594.1 431.5 606.3C430.4 607.5 430.5 609.2 431.7 610.3S434.5 611.3 435.6 610.1L443.1 601.9 443.7 615.9C443.8 617.6 444.9 618.6 446.6 618.6 448.3 618.5 449.4 617.3 449.3 615.7L448.7 601.7 457.4 609.1C458 609.7 458.6 610.2 459.1 610.2 459.7 610.1 460.8 609.5 461.3 609 462.4 607.8 462.3 606.1 461.2 605L448.3 593.8 447.5 574.3 476.6 600.4C477.2 601 477.8 601.5 478.4 601.5 478.9 601.5 480 600.8 480.6 600.3 481.6 599.1 481.6 597.4 480.4 596.3L447.1 566.4 446.4 550.2 457.5 560.9C458.1 561.5 459.2 561.4 459.8 561.4 460.3 561.4 460.9 561.3 461.4 560.7 462.5 559.6 462.4 557.3 461.3 556.8L446.1 542.4 445.4 526.7 459.7 533.9 465.6 553.8C466.2 554.9 467.4 556 468.5 555.9 469.1 555.9 469.1 555.9 469 555.4 470.7 555.3 471.8 553.6 471.1 551.9L466.6 537.5 480.9 544.7 494 587.9C494.6 589 495.8 589.5 496.9 589.4 497.5 589.4 497.5 589.4 497.5 589.4 499.1 588.8 500.2 587.6 499.5 586L487.8 548.4 505 557.7 510.2 573.7C510.9 575.4 512 575.9 513.1 575.8 513.1 575.8 513.7 575.8 513.7 575.8 515.3 575.2 515.8 573.5 515.8 572.4L511.9 561.3 524.5 568C525.1 568 525.7 568 526.2 568 526.8 567.9 527.9 567.3 528.4 566.8 528.9 565 528.8 563.4 527.1 562.9L514.5 556.2 525.6 552.9C527.2 552.2 527.7 550.5 527.6 549.4 527 547.8 525.3 547.3 523.6 547.3L507.6 552.5 490.4 543.8 527.4 532C529.1 531.4 530.1 529.7 529.5 528.6 528.9 526.9 527.7 525.9 526.1 526.5Z" fill="rgba(138, 42, 45, 1)"></path></g><defs><mask id="SvgjsMask1004"><rect width="1440" height="560" fill="#ffffff"></rect></mask><filter id="SvgjsFilter1005"><feGaussianBlur stdDeviation="1"></feGaussianBlur></filter></defs></svg>